<svg width="16" height="20" viewBox="0 0 16 20" fill="none" xmlns="http://www.w3.org/2000/svg">
<path fill-rule="evenodd" clip-rule="evenodd" d="M1.00011 12.1331L1.17956 11.2054L0.197758 11.0155L0.0183105 11.9432L1.00011 12.1331ZM1.53845 9.34984L1.89735 7.49432L0.915544 7.30442L0.556651 9.15994L1.53845 9.34984ZM2.25624 5.63881L2.61513 3.78329L1.63333 3.59339L1.27444 5.44891L2.25624 5.63881ZM2.97403 1.92777L3.15347 1.00001L2.17167 0.810113L1.99222 1.73787L2.97403 1.92777ZM2.50939 13.5491L3.23156 12.9397L2.58663 12.1755L1.86446 12.7849L2.50939 13.5491ZM4.67591 11.7208L6.12025 10.502L5.47532 9.73774L4.03098 10.9566L4.67591 11.7208ZM7.5646 9.28312L9.00894 8.06427L8.36401 7.30002L6.91967 8.51888L7.5646 9.28312ZM10.4533 6.84541L11.1755 6.23598L10.5305 5.47174L9.80836 6.08117L10.4533 6.84541ZM4.47983 15.4916L3.57555 15.7658L3.28533 14.8089L4.18961 14.5346L4.47983 15.4916ZM8.09696 14.3946L6.2884 14.9431L5.99817 13.9861L7.80673 13.4376L8.09696 14.3946ZM11.7141 13.2975L9.90552 13.846L9.61529 12.8891L11.4239 12.3406L11.7141 13.2975ZM14.4269 12.4748L13.5226 12.749L13.2324 11.7921L14.1367 11.5178L14.4269 12.4748ZM3.8905 18.8809L4.83527 18.8991L4.85457 17.8993L3.90979 17.881L3.8905 18.8809ZM6.72483 18.9356L8.61438 18.972L8.63368 17.9722L6.74412 17.9357L6.72483 18.9356ZM10.5039 19.0085L12.3935 19.045L12.4128 18.0451L10.5232 18.0087L10.5039 19.0085ZM14.283 19.0814L15.2278 19.0997L15.2471 18.0998L14.3023 18.0816L14.283 19.0814Z" fill="#D1D18C" fill-opacity="0.7"/>
</svg>
