<?xml version="1.0" encoding="utf-8"?>
<!-- Generator: Adobe Illustrator 16.0.0, SVG Export Plug-In . SVG Version: 6.00 Build 0)  -->
<!DOCTYPE svg PUBLIC "-//W3C//DTD SVG 1.1//EN" "http://www.w3.org/Graphics/SVG/1.1/DTD/svg11.dtd">
<svg version="1.1" id="Layer_1" xmlns="http://www.w3.org/2000/svg" xmlns:xlink="http://www.w3.org/1999/xlink" x="0px" y="0px"
	 width="26px" height="25px" viewBox="0 0 26 25" enable-background="new 0 0 26 25" xml:space="preserve">
<circle fill="none" stroke="#EBE6E6" cx="13.103" cy="12.459" r="11.615"/>
<path fill="#EBE6E6" d="M18.675,11.855H7.532c-0.513,0-0.929,0.15-0.929,0.334v0.333c0,0.185,0.416,0.333,0.929,0.333h11.143
	c0.513,0,0.929-0.148,0.929-0.333v-0.333C19.604,12.005,19.188,11.855,18.675,11.855z"/>
<path fill="#EBE6E6" d="M13.604,17.926V6.784c0-0.513-0.15-0.929-0.334-0.929h-0.333c-0.185,0-0.333,0.416-0.333,0.929v11.142
	c0,0.514,0.148,0.93,0.333,0.93h0.333C13.453,18.855,13.604,18.439,13.604,17.926z"/>
</svg>
