<?xml version="1.0" encoding="utf-8"?>
<!-- Generator: Adobe Illustrator 16.0.0, SVG Export Plug-In . SVG Version: 6.00 Build 0)  -->
<!DOCTYPE svg PUBLIC "-//W3C//DTD SVG 1.1//EN" "http://www.w3.org/Graphics/SVG/1.1/DTD/svg11.dtd">
<svg version="1.1" id="Layer_1" xmlns="http://www.w3.org/2000/svg" xmlns:xlink="http://www.w3.org/1999/xlink" x="0px" y="0px"
	 width="284px" height="71px" viewBox="0 0 284 71" enable-background="new 0 0 284 71" xml:space="preserve">
<g>
	<defs>
		<rect id="SVGID_1_" width="281" height="64.5"/>
	</defs>
	<clipPath id="SVGID_2_">
		<use xlink:href="#SVGID_1_"  overflow="visible"/>
	</clipPath>
	<g clip-path="url(#SVGID_2_)">
		<path fill="#DBE2E9" d="M6.561,25.607V15.472h3.69c1.13,0,2,0.207,2.607,0.622c0.608,0.415,0.913,0.999,0.913,1.752
			c0,0.547-0.185,1.025-0.555,1.435c-0.37,0.41-0.842,0.695-1.417,0.855v0.028c0.721,0.09,1.297,0.356,1.728,0.799
			c0.431,0.444,0.647,0.982,0.647,1.619c0,0.928-0.332,1.664-0.997,2.209c-0.665,0.543-1.572,0.816-2.721,0.816L6.561,25.607z
			 M8.843,17.154v2.403h1.004c0.471,0,0.842-0.114,1.113-0.343c0.271-0.228,0.406-0.543,0.406-0.943
			c0-0.745-0.556-1.117-1.668-1.117H8.843z M8.843,21.253v2.672h1.237c0.528,0,0.941-0.123,1.241-0.368
			c0.299-0.245,0.448-0.58,0.448-1.003c0-0.406-0.147-0.724-0.442-0.955c-0.294-0.23-0.705-0.346-1.233-0.346H8.843z"/>
		<path fill="#DBE2E9" d="M21.643,25.607H19.53v-1.039h-0.028c-0.485,0.811-1.203,1.216-2.155,1.216
			c-0.702,0-1.255-0.199-1.658-0.597c-0.403-0.397-0.604-0.929-0.604-1.594c0-1.404,0.832-2.215,2.496-2.432l1.964-0.261
			c0-0.792-0.428-1.188-1.286-1.188c-0.863,0-1.683,0.257-2.46,0.771v-1.683c0.312-0.16,0.737-0.302,1.276-0.424
			s1.031-0.185,1.474-0.185c2.064,0,3.096,1.03,3.096,3.088v4.327H21.643z M19.543,22.667V22.18l-1.314,0.17
			c-0.725,0.094-1.089,0.422-1.089,0.982c0,0.254,0.089,0.462,0.265,0.625c0.177,0.163,0.417,0.244,0.718,0.244
			c0.418,0,0.76-0.145,1.025-0.435C19.413,23.477,19.543,23.11,19.543,22.667z"/>
		<path fill="#DBE2E9" d="M30.4,25.607h-2.227v-4.022c0-1.122-0.4-1.683-1.202-1.683c-0.386,0-0.704,0.148-0.954,0.445
			c-0.25,0.296-0.375,0.674-0.375,1.13v4.127H23.41v-7.238h2.233v1.146h0.029c0.532-0.881,1.308-1.322,2.325-1.322
			c1.602,0,2.403,0.995,2.403,2.983V25.607z"/>
		<path fill="#DBE2E9" d="M39.263,24.781c0,1.342-0.389,2.382-1.166,3.12c-0.777,0.737-1.904,1.106-3.378,1.106
			c-0.975,0-1.748-0.14-2.318-0.417v-1.88c0.745,0.433,1.497,0.65,2.255,0.65c0.754,0,1.338-0.199,1.753-0.597
			s0.622-0.939,0.622-1.622v-0.573h-0.029c-0.508,0.811-1.26,1.216-2.255,1.216c-0.924,0-1.656-0.326-2.198-0.975
			c-0.542-0.65-0.813-1.522-0.813-2.615c0-1.226,0.302-2.198,0.905-2.92c0.604-0.721,1.396-1.082,2.382-1.082
			c0.881,0,1.541,0.339,1.979,1.018h0.029V18.37h2.233L39.263,24.781z M37.058,22.13v-0.573c0-0.457-0.136-0.847-0.406-1.169
			c-0.271-0.323-0.623-0.483-1.057-0.483c-0.494,0-0.884,0.193-1.166,0.58c-0.282,0.387-0.424,0.931-0.424,1.633
			c0,0.604,0.134,1.08,0.403,1.431c0.269,0.352,0.637,0.526,1.104,0.526c0.461,0,0.835-0.177,1.12-0.534
			C36.915,23.186,37.058,22.714,37.058,22.13z"/>
		<path fill="#DBE2E9" d="M43.362,25.607h-2.233V14.893h2.233V25.607z"/>
		<path fill="#DBE2E9" d="M51.264,25.607h-2.113v-1.039h-0.028c-0.485,0.811-1.203,1.216-2.155,1.216
			c-0.702,0-1.255-0.199-1.658-0.597c-0.403-0.397-0.604-0.929-0.604-1.594c0-1.404,0.832-2.215,2.496-2.432l1.964-0.261
			c0-0.792-0.428-1.188-1.286-1.188c-0.863,0-1.683,0.257-2.46,0.771v-1.683c0.312-0.16,0.737-0.302,1.276-0.424
			c0.54-0.123,1.031-0.185,1.474-0.185c2.064,0,3.096,1.03,3.096,3.088v4.327H51.264z M49.164,22.667V22.18l-1.314,0.17
			c-0.725,0.094-1.089,0.422-1.089,0.982c0,0.254,0.089,0.462,0.265,0.625c0.177,0.163,0.417,0.244,0.718,0.244
			c0.418,0,0.76-0.145,1.025-0.435C49.034,23.477,49.164,23.11,49.164,22.667z"/>
		<path fill="#DBE2E9" d="M60.112,25.607H57.88V24.61h-0.029c-0.509,0.782-1.255,1.173-2.241,1.173
			c-0.905,0-1.633-0.319-2.184-0.958c-0.551-0.639-0.827-1.531-0.827-2.675c0-1.197,0.304-2.156,0.912-2.877
			c0.608-0.721,1.404-1.082,2.389-1.082c0.933,0,1.583,0.334,1.95,1.003h0.029v-4.305h2.233L60.112,25.607z M57.922,22.088v-0.544
			c0-0.472-0.137-0.863-0.41-1.173c-0.273-0.311-0.629-0.466-1.067-0.466c-0.495,0-0.881,0.195-1.159,0.583
			s-0.417,0.923-0.417,1.601c0,0.636,0.134,1.126,0.403,1.47c0.269,0.344,0.641,0.516,1.117,0.516c0.453,0,0.821-0.181,1.106-0.544
			C57.779,23.167,57.922,22.686,57.922,22.088z"/>
		<path fill="#DBE2E9" d="M68.495,22.625h-4.721c0.076,1.051,0.737,1.576,1.986,1.576c0.796,0,1.496-0.188,2.1-0.565v1.612
			c-0.669,0.358-1.539,0.537-2.608,0.537c-1.168,0-2.076-0.324-2.721-0.972s-0.968-1.551-0.968-2.71
			c0-1.202,0.349-2.154,1.046-2.856c0.697-0.702,1.555-1.053,2.573-1.053c1.055,0,1.871,0.314,2.449,0.941
			c0.577,0.626,0.866,1.478,0.866,2.551v0.94H68.495z M66.424,21.253c0-1.037-0.42-1.555-1.258-1.555
			c-0.358,0-0.667,0.148-0.929,0.445c-0.261,0.296-0.421,0.667-0.478,1.109L66.424,21.253z"/>
		<path fill="#DBE2E9" d="M76.772,25.607h-2.227v-4.113c0-1.061-0.386-1.59-1.159-1.59c-0.396,0-0.716,0.148-0.961,0.444
			s-0.368,0.674-0.368,1.131v4.127h-2.233V14.892h2.233v4.552h0.028c0.547-0.834,1.289-1.251,2.227-1.251
			c1.64,0,2.459,0.99,2.459,2.968V25.607z"/>
		<path fill="#DBE2E9" d="M87.035,25.784c-1.452,0-2.634-0.472-3.549-1.417c-0.914-0.944-1.371-2.176-1.371-3.692
			c0-1.602,0.464-2.898,1.393-3.888c0.928-0.989,2.158-1.483,3.689-1.483c1.447,0,2.616,0.474,3.509,1.42
			c0.893,0.947,1.339,2.196,1.339,3.746c0,1.592-0.462,2.876-1.389,3.852C89.73,25.296,88.523,25.784,87.035,25.784z M87.134,17.267
			c-0.802,0-1.438,0.3-1.908,0.901c-0.471,0.601-0.707,1.396-0.707,2.385c0,1.004,0.236,1.798,0.707,2.382
			c0.471,0.585,1.089,0.877,1.852,0.877c0.786,0,1.411-0.284,1.873-0.852c0.462-0.568,0.693-1.356,0.693-2.364
			c0-1.051-0.224-1.868-0.672-2.453C88.523,17.559,87.911,17.267,87.134,17.267z"/>
		<path fill="#DBE2E9" d="M100.498,25.607h-2.227v-4.022c0-1.122-0.4-1.683-1.202-1.683c-0.386,0-0.704,0.148-0.954,0.445
			c-0.249,0.296-0.375,0.674-0.375,1.13v4.127h-2.233v-7.238h2.233v1.146h0.029c0.532-0.881,1.308-1.322,2.325-1.322
			c1.602,0,2.403,0.995,2.403,2.983V25.607z"/>
		<path fill="#DBE2E9" d="M104.499,25.607h-2.233V14.893h2.233V25.607z"/>
		<path fill="#DBE2E9" d="M107.509,17.225c-0.377,0-0.685-0.112-0.926-0.335s-0.36-0.499-0.36-0.824c0-0.334,0.12-0.607,0.36-0.82
			c0.24-0.212,0.549-0.318,0.926-0.318c0.382,0,0.691,0.106,0.93,0.318c0.238,0.212,0.356,0.485,0.356,0.82
			c0,0.339-0.119,0.617-0.356,0.833C108.201,17.116,107.891,17.225,107.509,17.225z M108.612,25.607h-2.233v-7.238h2.233V25.607z"/>
		<path fill="#DBE2E9" d="M117.482,25.607h-2.226v-4.022c0-1.122-0.401-1.683-1.202-1.683c-0.387,0-0.704,0.148-0.954,0.445
			c-0.249,0.296-0.374,0.674-0.374,1.13v4.127h-2.234v-7.238h2.234v1.146h0.028c0.533-0.881,1.307-1.322,2.325-1.322
			c1.602,0,2.403,0.995,2.403,2.983V25.607z"/>
		<path fill="#DBE2E9" d="M125.752,22.625h-4.721c0.075,1.051,0.737,1.576,1.986,1.576c0.795,0,1.496-0.188,2.098-0.565v1.612
			c-0.669,0.358-1.537,0.537-2.608,0.537c-1.168,0-2.075-0.324-2.72-0.972c-0.646-0.648-0.969-1.551-0.969-2.71
			c0-1.202,0.35-2.154,1.047-2.856c0.697-0.702,1.554-1.053,2.572-1.053c1.055,0,1.872,0.314,2.449,0.941
			c0.578,0.626,0.867,1.478,0.867,2.551L125.752,22.625z M123.681,21.253c0-1.037-0.42-1.555-1.258-1.555
			c-0.358,0-0.668,0.148-0.93,0.445c-0.262,0.296-0.421,0.667-0.477,1.109L123.681,21.253z"/>
		<path fill="#DBE2E9" d="M133.575,22.116v3.492h-2.282V15.473h3.575c2.554,0,3.831,1.077,3.831,3.23
			c0,1.018-0.366,1.841-1.099,2.471c-0.732,0.628-1.712,0.943-2.937,0.943L133.575,22.116z M133.575,17.225v3.159h0.898
			c1.215,0,1.824-0.532,1.824-1.597c0-1.042-0.609-1.562-1.824-1.562H133.575z"/>
		<path fill="#DBE2E9" d="M142.198,25.607h-2.233V14.893h2.233V25.607z"/>
		<path fill="#DBE2E9" d="M150.1,25.607h-2.113v-1.039h-0.027c-0.486,0.811-1.204,1.216-2.156,1.216
			c-0.703,0-1.255-0.199-1.658-0.597c-0.402-0.397-0.604-0.929-0.604-1.594c0-1.404,0.832-2.215,2.495-2.432l1.965-0.261
			c0-0.792-0.428-1.188-1.286-1.188c-0.861,0-1.682,0.257-2.459,0.771v-1.683c0.311-0.16,0.736-0.302,1.276-0.424
			c0.538-0.123,1.03-0.185,1.473-0.185c2.065,0,3.097,1.03,3.097,3.088L150.1,25.607z M148,22.667V22.18l-1.314,0.17
			c-0.725,0.094-1.088,0.422-1.088,0.982c0,0.254,0.088,0.462,0.264,0.625c0.178,0.163,0.418,0.244,0.719,0.244
			c0.42,0,0.761-0.145,1.023-0.435C147.869,23.477,148,23.11,148,22.667z"/>
		<path fill="#DBE2E9" d="M156.242,25.523c-0.33,0.174-0.827,0.262-1.492,0.262c-1.573,0-2.359-0.817-2.359-2.453v-3.314h-1.174
			V18.37h1.174v-1.562l2.226-0.637v2.198h1.626v1.647h-1.626v2.926c0,0.754,0.3,1.13,0.899,1.13c0.235,0,0.478-0.068,0.727-0.205
			V25.523z"/>
		<path fill="#DBE2E9" d="M162.221,16.603c-0.287-0.113-0.563-0.169-0.828-0.169c-0.716,0-1.074,0.389-1.074,1.166v0.77h1.654v1.647
			h-1.654v5.59h-2.226v-5.59h-1.216v-1.647h1.216v-0.897c0-0.824,0.269-1.489,0.806-1.993c0.535-0.504,1.268-0.756,2.191-0.756
			c0.452,0,0.829,0.047,1.13,0.141L162.221,16.603L162.221,16.603z"/>
		<path fill="#DBE2E9" d="M166.498,25.784c-1.206,0-2.156-0.338-2.846-1.014c-0.69-0.676-1.035-1.594-1.035-2.753
			c0-1.197,0.357-2.133,1.074-2.81c0.717-0.676,1.685-1.014,2.904-1.014c1.202,0,2.145,0.338,2.828,1.014
			c0.684,0.676,1.025,1.571,1.025,2.682c0,1.202-0.354,2.151-1.057,2.849C168.688,25.435,167.723,25.784,166.498,25.784z
			 M166.555,19.904c-0.527,0-0.938,0.182-1.229,0.544s-0.439,0.876-0.439,1.541c0,1.39,0.562,2.084,1.683,2.084
			c1.07,0,1.605-0.713,1.605-2.141C168.173,20.58,167.633,19.904,166.555,19.904z"/>
		<path fill="#DBE2E9" d="M176.618,20.385c-0.269-0.146-0.582-0.219-0.94-0.219c-0.486,0-0.865,0.178-1.138,0.534
			s-0.41,0.839-0.41,1.453v3.457h-2.233v-7.238h2.233v1.343h0.029c0.352-0.979,0.987-1.47,1.907-1.47
			c0.235,0,0.418,0.028,0.552,0.084V20.385z"/>
		<path fill="#DBE2E9" d="M189.123,25.607h-2.227V21.48c0-1.051-0.388-1.576-1.16-1.576c-0.367,0-0.666,0.158-0.898,0.474
			c-0.23,0.315-0.346,0.709-0.346,1.18v4.05h-2.233v-4.17c0-1.022-0.38-1.534-1.138-1.534c-0.383,0-0.688,0.151-0.916,0.453
			s-0.342,0.712-0.342,1.23v4.022h-2.234V18.37h2.234v1.131h0.027c0.231-0.386,0.555-0.701,0.973-0.943
			c0.417-0.242,0.871-0.364,1.367-0.364c1.021,0,1.722,0.45,2.099,1.35c0.551-0.9,1.36-1.35,2.431-1.35
			c1.574,0,2.361,0.971,2.361,2.913v4.501H189.123z"/>
		<path fill="#DBE2E9" d="M199.604,16.603c-0.287-0.113-0.563-0.169-0.828-0.169c-0.715,0-1.073,0.389-1.073,1.166v0.77h1.653v1.647
			h-1.653v5.59h-2.226v-5.59h-1.217v-1.647h1.217v-0.897c0-0.824,0.268-1.489,0.805-1.993c0.535-0.504,1.268-0.756,2.191-0.756
			c0.452,0,0.829,0.047,1.131,0.141V16.603L199.604,16.603z"/>
		<path fill="#DBE2E9" d="M203.879,25.784c-1.206,0-2.156-0.338-2.845-1.014c-0.691-0.676-1.036-1.594-1.036-2.753
			c0-1.197,0.357-2.133,1.075-2.81c0.716-0.676,1.684-1.014,2.903-1.014c1.203,0,2.145,0.338,2.828,1.014
			c0.684,0.676,1.024,1.571,1.024,2.682c0,1.202-0.353,2.151-1.056,2.849C206.068,25.435,205.104,25.784,203.879,25.784z
			 M203.936,19.904c-0.528,0-0.938,0.182-1.229,0.544s-0.438,0.876-0.438,1.541c0,1.39,0.561,2.084,1.683,2.084
			c1.069,0,1.604-0.713,1.604-2.141C205.555,20.58,205.014,19.904,203.936,19.904z"/>
		<path fill="#DBE2E9" d="M214.001,20.385c-0.269-0.146-0.582-0.219-0.94-0.219c-0.485,0-0.865,0.178-1.138,0.534
			s-0.409,0.839-0.409,1.453v3.457h-2.234v-7.238h2.234v1.343h0.027c0.354-0.979,0.989-1.47,1.908-1.47
			c0.234,0,0.419,0.028,0.551,0.084L214.001,20.385z"/>
		<path fill="#E8E8E8" d="M22.676,37.564c0-0.168,0.067-0.271,0.203-0.271h4.765c0.202,0,0.439,1.082,0.608,1.082
			c0.068,0,0.135-0.068,0.203-0.237c0.338-0.811,1.082-0.845,2.129-0.845c0.101,0,0.203,0.103,0.203,0.237v4.867
			c0,0.135-0.068,0.235-0.237,0.235c-1.724,0-2.399,0.912-2.399,3.65v10.982c0,0.169-0.136,0.306-0.305,0.306h-4.934
			c-0.135,0-0.236-0.103-0.236-0.271V37.564z"/>
		<path fill="#E8E8E8" d="M31.73,42.77c0-3.988,3.075-5.476,5.813-5.476c3.819,0,6.016,2.94,6.016,6.252v2.062
			c0,0.17-0.135,0.305-0.304,0.305H37.61c-0.135,0-0.203,0.102-0.203,0.271v5.306c0,0.541,0.237,0.744,0.541,0.744
			c0.237,0,0.541-0.203,0.541-0.709v-2.063c0-0.135,0.101-0.271,0.304-0.271l4.359,0.237c0.203,0.034,0.338,0.169,0.338,0.372v2.163
			c0,4.326-2.975,5.61-6.083,5.61c-3.616,0-5.677-2.569-5.677-6.422V42.77z M37.409,43.918c0,0.102,0.102,0.169,0.203,0.169
			c0.778,0,0.879,0,0.879-0.169c0-2.163-0.034-2.398-0.575-2.398c-0.27,0-0.507,0.202-0.507,0.709V43.918z"/>
		<path fill="#E8E8E8" d="M44.502,42.77c0-3.988,3.075-5.476,5.813-5.476c3.818,0,6.015,2.94,6.015,6.252v2.062
			c0,0.17-0.135,0.305-0.304,0.305h-5.644c-0.135,0-0.202,0.102-0.202,0.271v5.306c0,0.541,0.236,0.744,0.54,0.744
			c0.237,0,0.541-0.203,0.541-0.709v-2.063c0-0.135,0.102-0.271,0.305-0.271l4.359,0.237c0.203,0.034,0.338,0.169,0.338,0.372v2.163
			c0,4.326-2.974,5.61-6.083,5.61c-3.617,0-5.678-2.569-5.678-6.422V42.77z M50.18,43.918c0,0.102,0.101,0.169,0.202,0.169
			c0.778,0,0.879,0,0.879-0.169c0-2.163-0.033-2.398-0.574-2.398c-0.271,0-0.507,0.202-0.507,0.709V43.918z"/>
		<path fill="#E8E8E8" d="M57.747,57.572c-0.135,0-0.27-0.137-0.27-0.338V37.531c0-0.135,0.101-0.237,0.237-0.237h4.224
			c0.237,0,0.507,1.419,0.642,1.419c0.034,0,0.102-0.034,0.236-0.203c0.609-0.777,1.217-1.217,2.636-1.217
			c1.656,0,3.313,1.285,3.313,3.583v16.526c0,0.101-0.068,0.169-0.169,0.169h-4.664c-0.135,0-0.237-0.103-0.237-0.237V43.512
			c0-0.507-0.27-0.676-0.541-0.676c-0.27,0-0.54,0.169-0.54,0.676v13.856c0,0.135-0.068,0.203-0.237,0.203L57.747,57.572
			L57.747,57.572z"/>
		<path fill="#69B445" d="M81.128,45.371c0-0.372,0.372-0.473,0.575-0.473h6.861c0.236,0,0.439,0.203,0.439,0.405v3.886
			c0,0.137-0.034,0.271-0.135,0.271h-0.575c-0.203,0-0.237,0.169-0.237,0.406c0,3.277-1.96,7.807-7.165,7.807
			c-4.968,0-7.604-3.515-7.604-11.017v-3.955c0-6.286,2.061-10.544,7.739-10.544c1.317,0,7.029,0,7.029,9.463
			c0,0.236-0.101,0.439-0.338,0.439L81.6,42.332c-0.236,0-0.473-0.237-0.473-0.575v-1.926c0-0.306-0.271-0.372-0.541-0.372
			c-0.305,0-0.542,0.236-0.542,0.777v9.293c0,1.048,0.339,1.486,0.778,1.486c0.371,0,0.743-0.203,0.743-1.014v-0.507
			c0-0.103-0.034-0.203-0.135-0.203h-0.168c-0.068,0-0.135-0.067-0.135-0.203L81.128,45.371z"/>
		<path fill="#69B445" d="M89.846,37.564c0-0.168,0.067-0.271,0.203-0.271h4.765c0.204,0,0.44,1.082,0.608,1.082
			c0.067,0,0.136-0.068,0.203-0.237c0.338-0.811,1.082-0.845,2.13-0.845c0.102,0,0.203,0.103,0.203,0.237v4.867
			c0,0.135-0.068,0.235-0.237,0.235c-1.724,0-2.399,0.912-2.399,3.65v10.982c0,0.169-0.135,0.306-0.304,0.306h-4.935
			c-0.135,0-0.237-0.103-0.237-0.271V37.564z"/>
		<path fill="#69B445" d="M98.898,42.531c0-3.108,2.331-5.237,5.813-5.237c3.48,0,5.813,2.095,5.813,5.407V52.3
			c0,3.144-2.333,5.272-5.813,5.272c-3.448,0-5.813-2.163-5.813-5.272V42.531z M104.171,51.421c0,0.405,0.168,0.676,0.541,0.676
			s0.541-0.271,0.541-0.676v-8.044c0-0.371-0.203-0.676-0.541-0.676c-0.372,0-0.541,0.305-0.541,0.676V51.421z"/>
		<path fill="#69B445" d="M120.256,51.015c-0.068-0.575-0.136-0.709-0.204-0.709c-0.067,0-0.134,0.136-0.202,0.709l-0.743,6.286
			c-0.034,0.169-0.136,0.271-0.271,0.271h-4.292c-0.136,0-0.271-0.137-0.304-0.306l-3.245-19.735
			c-0.034-0.135,0.034-0.237,0.135-0.237h4.393c0.169,0,0.271,0.103,0.271,0.237l0.878,5.711c0.034,0.203,0.102,0.304,0.135,0.304
			c0.034,0,0.102-0.067,0.136-0.304l0.879-5.678c0.034-0.168,0.169-0.271,0.271-0.271h3.887c0.134,0,0.235,0.103,0.27,0.237
			l0.812,5.711c0.034,0.203,0.101,0.304,0.135,0.304c0.034,0,0.102-0.101,0.136-0.304l0.878-5.678
			c0.034-0.168,0.169-0.271,0.271-0.271h4.358c0.136,0,0.271,0.135,0.236,0.304l-3.243,19.703c-0.034,0.169-0.136,0.271-0.271,0.271
			h-4.292c-0.136,0-0.271-0.137-0.306-0.306L120.256,51.015z"/>
		<path fill="#69B445" d="M130.22,42.904c0-0.135-0.067-0.236-0.203-0.236c-0.71,0-0.777,0-0.777-0.237v-4.934
			c0-0.103,0.067-0.203,0.135-0.203c0.778,0,0.846,0,0.846-0.237v-2.973c0-0.136,0.101-0.237,0.236-0.237h4.866
			c0.338,0,0.338,0.067,0.338,0.304v2.839c0,0.203,0.102,0.304,0.271,0.304c1.048,0,1.149,0,1.149,0.237v4.899
			c0,0.136-0.102,0.237-0.236,0.237c-1.048,0-1.184,0-1.184,0.27v8.889c0,0.136,0.102,0.271,0.202,0.271
			c1.184,0,1.319,0,1.319,0.203c0,1.927,0,5.272-3.447,5.272c-2.028,0-3.515-1.25-3.515-5.307V42.904z"/>
		<path fill="#69B445" d="M157.369,41.891c0-6.151,2.873-9.734,7.503-9.734c4.935,0,7.537,4.191,7.537,9.058
			c0,0.913,0,1.014-0.306,1.014l-6.252,0.236c-0.305,0-0.607-0.271-0.607-0.676V39.66c0-0.475-0.271-0.644-0.542-0.644
			s-0.54,0.237-0.54,0.608v10.511c0,0.338,0.236,0.575,0.54,0.575c0.338,0,0.542-0.271,0.542-0.609v-3.412
			c0-0.203,0.134-0.508,0.404-0.474l6.388,0.236c0.17,0,0.271,0.135,0.271,0.271c0,8.146-3.347,10.949-7.604,10.949
			c-4.696,0-7.333-4.225-7.333-9.057V41.891z"/>
		<path fill="#69B445" d="M173.352,42.532c0-3.109,2.332-5.238,5.813-5.238c3.479,0,5.813,2.095,5.813,5.407V52.3
			c0,3.144-2.332,5.272-5.813,5.272c-3.448,0-5.813-2.163-5.813-5.272V42.532z M178.624,51.421c0,0.405,0.169,0.677,0.541,0.677
			s0.54-0.271,0.54-0.677v-8.044c0-0.371-0.202-0.676-0.54-0.676c-0.372,0-0.541,0.305-0.541,0.676V51.421z"/>
		<path fill="#69B445" d="M203.798,57.199c0,0.203-0.103,0.373-0.305,0.373h-4.528c-0.169,0-0.304-0.17-0.304-0.373V43.512
			c0-0.507-0.271-0.71-0.541-0.71s-0.541,0.203-0.541,0.71v13.721c0,0.202-0.103,0.338-0.304,0.338h-4.631
			c-0.17,0-0.305-0.102-0.305-0.305V43.478c0-0.507-0.27-0.676-0.541-0.676c-0.27,0-0.54,0.169-0.54,0.676v13.856
			c0,0.135-0.102,0.236-0.271,0.236h-4.631c-0.135,0-0.236-0.102-0.236-0.271V37.564c0-0.137,0.136-0.271,0.304-0.271h4.429
			c0.271,0,0.474,1.454,0.709,1.454c0.103,0,0.203-0.068,0.373-0.271c0.539-0.608,1.453-1.183,2.534-1.183
			c1.216,0,2.027,0.507,2.567,1.217c0.17,0.237,0.304,0.338,0.406,0.338c0.102,0,0.27-0.101,0.404-0.27
			c0.643-0.609,1.487-1.285,2.771-1.285c1.724,0,3.177,1.555,3.177,3.515v16.392H203.798z"/>
		<path fill="#69B445" d="M222.818,57.199c0,0.203-0.103,0.373-0.305,0.373h-4.529c-0.168,0-0.303-0.17-0.303-0.373V43.512
			c0-0.507-0.271-0.71-0.541-0.71c-0.271,0-0.541,0.203-0.541,0.71v13.721c0,0.202-0.103,0.338-0.305,0.338h-4.63
			c-0.17,0-0.306-0.102-0.306-0.305V43.478c0-0.507-0.27-0.676-0.541-0.676c-0.27,0-0.539,0.169-0.539,0.676v13.856
			c0,0.135-0.103,0.236-0.271,0.236h-4.63c-0.136,0-0.237-0.102-0.237-0.271V37.564c0-0.137,0.137-0.271,0.305-0.271h4.429
			c0.271,0,0.474,1.454,0.709,1.454c0.103,0,0.202-0.068,0.372-0.271c0.54-0.608,1.453-1.183,2.535-1.183
			c1.216,0,2.027,0.507,2.566,1.217c0.17,0.237,0.305,0.338,0.406,0.338s0.27-0.101,0.405-0.27c0.642-0.609,1.487-1.285,2.771-1.285
			c1.725,0,3.178,1.555,3.178,3.515v16.392H222.818z"/>
		<path fill="#69B445" d="M224.168,37.632c0-0.202,0.102-0.338,0.271-0.338h4.258c0.169,0,0.271,0.103,0.271,0.271v12.91
			c0,0.508,0.304,0.677,0.54,0.677c0.271,0,0.541-0.169,0.541-0.677v-12.91c0-0.168,0.104-0.271,0.236-0.271h4.395
			c0.168,0,0.305,0.103,0.305,0.237v19.804c0,0.136-0.103,0.237-0.271,0.237h-3.986c-0.203,0-0.406-1.184-0.607-1.184
			c-0.068,0-0.17,0.068-0.372,0.271c-0.608,0.575-1.185,0.913-2.399,0.913c-1.387,0-3.177-1.149-3.177-3.515V37.632H224.168z"/>
		<path fill="#69B445" d="M236.602,57.572c-0.137,0-0.271-0.137-0.271-0.338V37.531c0-0.136,0.102-0.237,0.236-0.237h4.226
			c0.235,0,0.506,1.419,0.642,1.419c0.034,0,0.103-0.034,0.236-0.203c0.609-0.777,1.217-1.217,2.637-1.217
			c1.655,0,3.313,1.285,3.313,3.583v16.526c0,0.101-0.066,0.168-0.169,0.168h-4.664c-0.136,0-0.236-0.102-0.236-0.236V43.512
			c0-0.507-0.27-0.676-0.541-0.676c-0.27,0-0.54,0.169-0.54,0.676v13.855c0,0.136-0.066,0.203-0.236,0.203h-4.631V57.572z"/>
		<path fill="#69B445" d="M254.439,57.301c0,0.135-0.101,0.271-0.235,0.271h-4.968c-0.135,0-0.271-0.17-0.271-0.305V37.7
			c0-0.237,0.137-0.406,0.338-0.406h4.799c0.203,0,0.338,0.169,0.338,0.338V57.301z M254.104,35.875
			c0,0.203-0.136,0.372-0.338,0.372h-4.123c-0.168,0-0.338-0.203-0.338-0.406V31.65c0-0.169,0.17-0.372,0.338-0.372h4.156
			c0.135,0,0.305,0.102,0.305,0.271V35.875z"/>
		<path fill="#69B445" d="M256.264,42.904c0-0.135-0.067-0.236-0.201-0.236c-0.711,0-0.777,0-0.777-0.236v-4.935
			c0-0.103,0.066-0.203,0.134-0.203c0.777,0,0.847,0,0.847-0.237v-2.973c0-0.136,0.102-0.237,0.235-0.237h4.866
			c0.338,0,0.338,0.067,0.338,0.304v2.839c0,0.203,0.102,0.304,0.271,0.304c1.047,0,1.147,0,1.147,0.237v4.9
			c0,0.135-0.101,0.236-0.235,0.236c-1.049,0-1.185,0-1.185,0.27v8.889c0,0.136,0.103,0.271,0.203,0.271
			c1.183,0,1.317,0,1.317,0.202c0,1.927,0,5.272-3.447,5.272c-2.026,0-3.514-1.25-3.514-5.307V42.904L256.264,42.904z"/>
		<path fill="#69B445" d="M263.563,37.531c0-0.102,0.035-0.237,0.17-0.237h4.664c0.168,0,0.233,0.103,0.269,0.237l0.744,5.068
			c0.032,0.136,0.067,0.271,0.135,0.271c0.034,0,0.104-0.135,0.136-0.271l0.946-5.137c0.034-0.066,0.065-0.169,0.202-0.169h4.461
			c0.136,0,0.236,0.103,0.203,0.136l-4.766,24.94c-0.033,0.135-0.136,0.271-0.305,0.271h-4.324c-0.17,0-0.271-0.135-0.236-0.304
			l1.554-8.517c0.034-0.169,0.034-0.338,0-0.508L263.563,37.531z"/>
		<path fill="#E8E8E8" d="M12.356,45.423c0-0.376,0-0.376,1.396-0.479h7.76c0.24,0,0.445,0.205,0.445,0.412v3.936
			c0,0.137-0.034,0.273-0.137,0.273h-1.396c-0.206,0-0.239,0.17-0.239,0.41c0,3.317-1.985,7.903-7.254,7.903
			c-5.029,0-7.699-3.558-7.699-11.153v-4.002c0-6.365,2.087-10.676,7.835-10.676c1.334,0,7.117,0,7.117,9.581
			c0,0.239-0.103,0.444-0.342,0.444l-6.194,0.273c-0.239,0-0.479-0.238-0.479-0.58v-1.951c0-0.309-0.273-0.377-0.546-0.377
			c-0.309,0-1.363,0.239-1.363,0.787v9.411c0,1.061,1.157,1.505,1.602,1.505c0.376,0,0.752-0.205,0.752-1.025L12.8,49.6
			c0.103,0,0-0.103,0,0l-0.307-0.207c-0.069,0-0.138-0.067-0.138-0.205L12.356,45.423z"/>
		<rect x="248" y="-2" fill="none" width="32" height="32"/>
	</g>
</g>
<g>
	<path fill="#69B445" d="M144.484,35.032v4.979c0.428-0.438,0.891-0.767,1.389-0.986c0.498-0.221,1.031-0.33,1.599-0.33
		c0.87,0,1.613,0.246,2.226,0.738c0.614,0.492,0.988,1.061,1.123,1.702c0.136,0.642,0.205,1.816,0.205,3.521v12.51h-4.985V44.396
		c0-1.058-0.048-1.735-0.143-2.037c-0.095-0.301-0.307-0.45-0.636-0.45c-0.304,0-0.51,0.155-0.617,0.465s-0.16,0.925-0.16,1.846
		v12.947H139.5V35.032H144.484z"/>
</g>
</svg>
