<?xml version="1.0" encoding="utf-8"?>
<!-- Generator: Adobe Illustrator 16.0.0, SVG Export Plug-In . SVG Version: 6.00 Build 0)  -->
<!DOCTYPE svg PUBLIC "-//W3C//DTD SVG 1.1//EN" "http://www.w3.org/Graphics/SVG/1.1/DTD/svg11.dtd">
<svg version="1.1" xmlns="http://www.w3.org/2000/svg" xmlns:xlink="http://www.w3.org/1999/xlink" x="0px" y="0px"
	 width="696.07px" height="705.071px" viewBox="0 0 696.07 705.071" enable-background="new 0 0 696.07 705.071"
	 xml:space="preserve">
<g id="Bg">
</g>
<g id="Object">
	<g>
		<g>
			<path fill="none" d="M358.961,250.048c-64.025,0-116.503,52.102-116.993,116.142c-0.218,31.253,11.722,60.729,33.662,82.991
				c21.932,22.263,51.212,34.648,82.465,34.881l0.915,0.003c64.012,0,116.488-52.096,116.979-116.129
				c0.472-64.527-51.63-117.411-116.146-117.885L358.961,250.048z M268.688,302.87c20.051-28.072,52.731-46.513,89.583-46.746
				c-1.465,24.084-6.549,47.475-15.203,69.623c-23.936-8.064-48.919-12.358-74.379-12.77V302.87z M254.714,404.869
				c-4.417-12.231-6.797-25.237-6.707-38.631c0.098-12.896,2.536-25.225,6.707-36.736V404.869z M268.688,423.542v-96.636
				c23.573,0.418,46.734,4.352,68.92,11.723C322.218,371.676,298.476,400.928,268.688,423.542z M290.196,424.029
				c26.079-22.655,46.438-49.724,60.601-80.573c16.063,6.466,31.276,14.727,45.281,24.602
				C367.888,398.042,330.595,417.75,290.196,424.029z M439.435,290.83c-6.646,24.166-18.084,46.776-34.134,66.657
				c-15.185-10.833-31.706-19.872-49.143-26.901c9.145-23.425,14.477-48.184,16.002-73.666
				C398.553,260.058,422.06,272.498,439.435,290.83z"/>
			<path fill="#AAD4C8" d="M158.401,352.724c-10.021,5.211-19.657,11.111-28.705,17.744c12.794,13.134,27.477,24.124,43.339,32.86
				c-2.397-12.28-3.619-24.881-3.529-37.678c0.018-1.426,0.097-2.829,0.139-4.248C165.167,359.544,161.354,356.492,158.401,352.724z
				"/>
			<path fill="#AAD4C8" d="M148.991,255.361l-43.036,0.024c-2.627,11.845-12.782,20.737-25.177,21.66
				c5.882,30.467,19.227,58.817,39.508,83.025c10.246-7.583,21.151-14.322,32.542-20.195c-0.218-1.401-0.424-2.808-0.424-4.272
				c0-7.49,2.972-14.256,7.778-19.27C153.911,296.706,150.122,276.292,148.991,255.361z"/>
			<path fill="#AAD4C8" d="M172.478,308.904c2.161-0.636,4.406-1.054,6.754-1.144c6.391-19.003,15.735-36.667,27.524-52.423
				l-43.792,0.024C164.018,273.706,167.244,291.616,172.478,308.904z"/>
			<path fill="#AAD4C8" d="M254.714,329.502c-4.17,11.511-6.609,23.839-6.707,36.736c-0.09,13.394,2.289,26.399,6.707,38.631
				V329.502z"/>
			<path fill="#AAD4C8" d="M123.293,120.08c13.642,10.803,28.463,19.996,44.126,27.386c13.956-33.265,35.701-63.308,63.207-87.428
				C189.158,67.112,151.351,88.212,123.293,120.08z"/>
			<path fill="#AAD4C8" d="M162.522,241.396l55.763-0.03c10.768-11.825,23.004-22.247,36.428-31.022V182.93
				c-27.44-1.12-54.178-6.793-79.512-16.864C166.832,190.193,162.565,215.524,162.522,241.396z"/>
			<path fill="#AAD4C8" d="M78.714,221.358c12.685,0,23.258,8.5,26.672,20.065l43.175-0.027
				c0.036-27.821,4.678-55.019,13.787-80.895c-17.007-7.928-33.093-17.884-47.884-29.607c-20.202,26.735-32.367,57.68-35.967,90.488
				L78.714,221.358z"/>
			<path fill="#AAD4C8" d="M290.196,424.029c40.398-6.279,77.691-25.987,105.882-55.972c-14.005-9.875-29.219-18.136-45.281-24.602
				C336.634,374.305,316.275,401.374,290.196,424.029z"/>
			<path fill="#AAD4C8" d="M356.158,330.585c17.437,7.029,33.958,16.068,49.143,26.901c16.05-19.881,27.488-42.491,34.134-66.657
				c-17.375-18.332-40.882-30.772-67.274-33.91C370.635,282.402,365.303,307.161,356.158,330.585z"/>
			<path fill="#AAD4C8" d="M441.432,200.363c-5.494-23.867-15.688-46.431-30.369-66.651c-9.932,7.559-20.474,14.241-31.41,20.168
				c1.12,3.02,1.81,6.246,1.81,9.656c0,6.603-2.378,12.588-6.216,17.37C398.886,183.263,421.213,190.029,441.432,200.363z"/>
			<path fill="#AAD4C8" d="M254.714,168.959V58.527c-33.166,24.598-58.862,57.195-74.489,94.485
				C203.998,162.493,229.053,167.848,254.714,168.959z"/>
			<path fill="#AAD4C8" d="M268.688,60.116v109.007c19.445-0.345,38.582-3.193,57.168-8.382c0.768-7.628,4.544-14.295,10.208-18.855
				C320.584,110.021,297.575,82.048,268.688,60.116z"/>
			<path fill="#AAD4C8" d="M348.714,136.084c1.574-0.272,3.167-0.484,4.806-0.484c6.936,0,13.199,2.615,18.078,6.793
				c10.748-5.728,21.104-12.25,30.858-19.66c-28.905-34.115-68.484-56.338-112.277-63.12
				C314.774,81.041,334.71,107.156,348.714,136.084z"/>
			<path fill="#AAD4C8" d="M268.688,202.028c19.445-10.431,40.93-17.479,63.65-20.45c-1.762-2.073-3.305-4.343-4.407-6.873
				c-19.294,5.244-39.133,8.061-59.244,8.4V202.028z"/>
			<path fill="#AAD4C8" d="M268.688,423.542c29.788-22.613,53.53-51.865,68.92-84.913c-22.187-7.371-45.347-11.305-68.92-11.723
				V423.542z"/>
			<path fill="#AAD4C8" d="M268.688,302.87v10.107c25.46,0.412,50.443,4.706,74.379,12.77c8.654-22.147,13.738-45.539,15.203-69.623
				C321.419,256.357,288.739,274.797,268.688,302.87z"/>
			<path fill="#82BFAB" d="M353.52,135.6c-1.639,0-3.231,0.212-4.806,0.484c-4.745,0.826-9.042,2.888-12.649,5.801
				c-5.664,4.56-9.441,11.227-10.208,18.855c-0.097,0.932-0.285,1.837-0.285,2.796c0,3.979,0.865,7.743,2.36,11.169
				c1.102,2.53,2.645,4.799,4.407,6.873c7.945-1.038,16.019-1.631,24.232-1.631l1.416,0.003c5.822,0.042,11.584,0.39,17.26,0.957
				c3.838-4.781,6.216-10.767,6.216-17.37c0-3.411-0.689-6.636-1.81-9.656c-1.67-4.512-4.467-8.418-8.055-11.487
				C366.719,138.215,360.455,135.6,353.52,135.6z"/>
			<path fill="#616E7D" d="M78.714,221.358l-0.218,0.024c-15.342,0.121-27.725,12.576-27.725,27.924
				c0,15.442,12.503,27.948,27.942,27.948l2.064-0.209c12.395-0.923,22.55-9.815,25.177-21.66c0.424-1.964,0.707-3.985,0.707-6.079
				c0-2.757-0.538-5.366-1.276-7.883C101.972,229.858,91.398,221.358,78.714,221.358z"/>
			<path fill="#82BFAB" d="M152.403,335.603c0,1.464,0.207,2.871,0.424,4.272c0.745,4.814,2.706,9.175,5.573,12.849
				c2.954,3.768,6.767,6.82,11.245,8.679c0.569-18.686,3.874-36.697,9.586-53.643c-2.348,0.09-4.594,0.508-6.754,1.144
				c-4.744,1.4-8.981,3.942-12.297,7.429C155.375,321.347,152.403,328.113,152.403,335.603z"/>
			<path fill="#616E7D" d="M600.008,562.831l-93.922-93.913c20.377-29.815,31.283-64.461,31.549-100.528
				c0.738-99.825-79.875-181.649-179.697-182.396l-1.367-0.003c-99.072,0-180.279,80.613-181.018,179.706
				c-0.363,48.354,18.126,93.953,52.067,128.398c33.939,34.448,79.258,53.615,127.631,53.976l1.367,0.005
				c33.656,0,66.355-9.28,94.867-26.886l94.018,93.982l-5.33-5.335l53.832-53.01L600.008,562.831z M359.01,484.065l-0.915-0.003
				c-31.253-0.232-60.533-12.618-82.465-34.881c-21.939-22.263-33.879-51.738-33.662-82.991
				c0.49-64.04,52.968-116.142,116.993-116.142l0.883,0.003c64.516,0.475,116.617,53.358,116.146,117.885
				C475.498,431.969,423.021,484.065,359.01,484.065z"/>
		</g>
		<path fill="#82BFAB" d="M555.404,625.087l12.837,13.012c3.733,3.798,8.927,5.805,14.995,5.805l0,0
			c9.775,0,20.947-5.266,29.898-14.093c15.088-14.876,19.021-34.536,8.951-44.755l-17.134-17.375l-0.048,0.036l0.206,0.196
			l0.03-0.018l8.279,8.399l-53.804,53.008L555.404,625.087z"/>
		<polygon fill="#82BFAB" points="555.139,624.813 551.07,620.751 551.07,620.757 		"/>
		<polygon fill="#AAD4C8" points="604.904,567.717 600.008,562.831 594.004,556.827 540.172,609.836 545.502,615.171 
			551.07,620.751 555.139,624.813 555.404,625.087 559.616,629.303 613.42,576.295 605.141,567.896 605.11,567.914 		"/>
	</g>
</g>
</svg>
